# xmcd CD database file
#
# Track frame offsets:
#	150
#	16482
#	30011
#	49976
#	69673
#	87088
#	104005
#	136451
#	164655
#	188118
#
# Disc length: 2792 seconds
#
# Revision: 3
# Processed by: cddbd v1.5.2PL0 Copyright (c) Steve Scherf et al.
# Submitted via: CDex 1.51
#
DISCID=850ae60a
DTITLE=Destroyalldreamers - Wish I Was All Flames
DYEAR=2007
DGENRE=New Age
TTITLE0=Wish I Was All Flames
TTITLE1=Cendres En Transe
TTITLE2=Automne
TTITLE3=A Summer Without You
TTITLE4=Le Pianiste Météorologique
TTITLE5=My Eyes Were On The Dancefloor
TTITLE6=Perdre Est Question De Méthode
TTITLE7=Her Brother Played The Riot I
TTITLE8=Her Brother Played The Riot II
TTITLE9=Her Brother Played The Riot III
EXTD=YEAR: 2007
EXTT0=
EXTT1=
EXTT2=
EXTT3=
EXTT4=
EXTT5=
EXTT6=
EXTT7=
EXTT8=
EXTT9=
PLAYORDER=
